<svg width="252" height="39" viewBox="0 0 252 39" fill="none" xmlns="http://www.w3.org/2000/svg">
<path d="M11.5572 16.7225V17.6018L8.99437 22.0206C8.98039 22.0465 8.97546 22.0763 8.98036 22.1054C8.98526 22.1344 8.99971 22.161 9.02138 22.1808C9.04392 22.199 9.07194 22.2089 9.10082 22.2089C9.1297 22.2089 9.15772 22.199 9.18026 22.1808L11.5524 20.198V30.3922C11.5524 30.418 11.5602 30.4432 11.5747 30.4645C11.5891 30.4858 11.6096 30.5022 11.6335 30.5115C11.6574 30.5209 11.6835 30.5228 11.7084 30.5169C11.7334 30.511 11.756 30.4977 11.7733 30.4786L17.9603 23.7407L23.9852 30.477C23.9972 30.4902 24.0116 30.5006 24.0278 30.5078C24.0439 30.515 24.0614 30.5187 24.079 30.5187C24.0947 30.5185 24.1102 30.5158 24.1251 30.5107C24.149 30.5013 24.1696 30.4848 24.1841 30.4633C24.1986 30.4419 24.2062 30.4165 24.2061 30.3906V24.6248H27.3361C27.3534 24.6249 27.3705 24.6214 27.3864 24.6145C27.4022 24.6076 27.4165 24.5975 27.4283 24.5848L30.3597 21.4809C30.3712 21.4693 30.3802 21.4556 30.3862 21.4404C30.3922 21.4253 30.3951 21.4091 30.3947 21.3928V18.3497C30.395 18.3254 30.3883 18.3015 30.3756 18.2809L27.611 13.8781L29.1268 12.5583L30.3184 13.436C30.3373 13.4498 30.3596 13.4582 30.3829 13.4601C30.4061 13.462 30.4295 13.4574 30.4503 13.4468C30.4712 13.4362 30.4887 13.42 30.501 13.4C30.5134 13.3801 30.52 13.357 30.5202 13.3335V11.8024C30.5205 11.7799 30.5147 11.7578 30.5035 11.7383C30.4923 11.7189 30.4761 11.7028 30.4567 11.6919L27.5459 9.98938C27.5269 9.97726 27.5048 9.97113 27.4823 9.97176H26.4813C26.465 9.97185 26.4488 9.97511 26.4337 9.98137L24.0981 10.9423C24.0749 10.9518 24.055 10.9679 24.0408 10.9887C24.0267 11.0095 24.019 11.034 24.0186 11.0593L23.9551 16.3846L18.0604 9.81801C18.0486 9.80482 18.0341 9.79429 18.0179 9.78711C18.0018 9.77994 17.9843 9.77628 17.9667 9.77637C17.9494 9.77629 17.9323 9.77981 17.9164 9.7867C17.9006 9.79359 17.8863 9.8037 17.8745 9.81641L11.5922 16.636C11.5698 16.6592 11.5573 16.6902 11.5572 16.7225ZM26.8229 10.228H27.449L30.266 11.8761V13.0805L29.1999 12.2957L26.8229 10.228ZM27.4807 13.6602L25.5423 10.6252L26.4655 10.2472L28.9266 12.395L27.4807 13.6602ZM28.9647 22.5988L24.214 16.6632L24.2808 11.1425L25.3024 10.7229L27.3457 13.9261L30.1405 18.385V21.3463L28.9647 22.5988ZM24.2045 17.0701L28.7804 22.7862L27.2805 24.3733H24.2045V17.0701ZM23.793 16.5752L11.9751 16.5896L17.9651 10.0807L23.793 16.5752ZM18.0588 23.462L11.9751 16.8506L23.9503 16.8362V30.0574L18.0604 23.462H18.0588ZM11.8114 17.0556L17.7887 23.5485L11.8114 30.0638V17.0556ZM11.5572 18.1143V19.8761L9.57748 21.5193L11.5572 18.1143Z" fill="#15EDA3" stroke="#15EDA3" stroke-width="0.5"/>
<path d="M36.9099 16.4362C36.9272 16.4363 36.9444 16.4326 36.96 16.4252C36.9757 16.4178 36.9895 16.4069 37.0004 16.3935C37.0113 16.38 37.0191 16.3642 37.0231 16.3474C37.0271 16.3305 37.0272 16.3129 37.0234 16.296C36.2028 12.3414 34.0444 8.79035 30.9118 6.24102C27.7791 3.69168 23.8636 2.2998 19.8247 2.2998C15.7859 2.2998 11.8704 3.69168 8.7377 6.24102C5.60505 8.79035 3.44665 12.3414 2.62603 16.296C2.62289 16.3109 2.62271 16.3263 2.62551 16.3413C2.62831 16.3563 2.63404 16.3706 2.64236 16.3833C2.65068 16.3961 2.66143 16.4071 2.674 16.4157C2.68658 16.4243 2.70072 16.4304 2.71563 16.4335C2.73055 16.4367 2.74593 16.4368 2.76091 16.434C2.77589 16.4312 2.79017 16.4255 2.80294 16.4172C2.81571 16.4089 2.82672 16.3981 2.83533 16.3856C2.84394 16.373 2.84999 16.3588 2.85314 16.3439C3.66162 12.4402 5.79109 8.93445 8.8827 6.41752C11.9743 3.9006 15.839 2.52634 19.8256 2.52634C23.8122 2.52634 27.677 3.9006 30.7686 6.41752C33.8602 8.93445 35.9896 12.4402 36.7981 16.3439C36.8027 16.3701 36.8165 16.3937 36.837 16.4106C36.8575 16.4275 36.8833 16.4366 36.9099 16.4362Z" fill="#48A2AE" stroke="#48A2AE" stroke-width="0.3"/>
<path d="M1.17743 17.5404H5.76032C5.8102 17.5404 5.85803 17.5206 5.8933 17.4854C5.92857 17.4501 5.94839 17.4023 5.94839 17.3524V17.2637C5.94862 17.2389 5.94392 17.2143 5.93455 17.1914C5.92519 17.1685 5.91134 17.1477 5.89383 17.1301C5.87632 17.1126 5.85549 17.0988 5.83257 17.0894C5.80964 17.0801 5.78508 17.0754 5.76032 17.0756H1.75583C1.72928 17.0744 1.70328 17.0677 1.67954 17.0557C1.65579 17.0438 1.63485 17.027 1.61809 17.0063C1.60132 16.9857 1.58912 16.9618 1.58228 16.9361C1.57544 16.9104 1.57412 16.8836 1.57841 16.8574C2.3066 12.5427 4.53959 8.62542 7.88122 5.80051C11.2229 2.97559 15.4571 1.42565 19.8328 1.42565C24.2085 1.42565 28.4427 2.97559 31.7844 5.80051C35.126 8.62542 37.359 12.5427 38.0872 16.8574C38.0915 16.8836 38.0901 16.9104 38.0833 16.9361C38.0765 16.9618 38.0643 16.9857 38.0475 17.0063C38.0307 17.027 38.0098 17.0438 37.986 17.0557C37.9623 17.0677 37.9363 17.0744 37.9098 17.0756H33.8485C33.7986 17.0756 33.7508 17.0954 33.7155 17.1307C33.6802 17.1659 33.6604 17.2138 33.6604 17.2637V17.3524C33.6609 17.4021 33.6808 17.4497 33.716 17.4848C33.7512 17.52 33.7988 17.54 33.8485 17.5404H38.4367C38.4635 17.5404 38.49 17.5347 38.5144 17.5236C38.5387 17.5125 38.5605 17.4964 38.5781 17.4762C38.5958 17.4561 38.6089 17.4324 38.6166 17.4067C38.6244 17.3811 38.6265 17.3541 38.623 17.3275C37.9803 12.7803 35.711 8.62022 32.2357 5.6181C28.7605 2.61598 24.3148 0.975374 19.7224 1.00028C15.1301 1.02518 10.7024 2.71391 7.25988 5.75355C3.81736 8.79318 1.59337 12.9777 1 17.5316H1.17743V17.5404Z" fill="#48A2AE" stroke="#48A2AE" stroke-width="0.3"/>
<path d="M36.9096 23.1079C36.927 23.1078 36.9441 23.1115 36.9598 23.1189C36.9754 23.1263 36.9893 23.1372 37.0002 23.1506C37.0111 23.1641 37.0188 23.1799 37.0228 23.1967C37.0268 23.2136 37.0269 23.2312 37.0232 23.2481C36.2026 27.2027 34.0442 30.7537 30.9115 33.3031C27.7788 35.8524 23.8634 37.2443 19.8245 37.2443C15.7856 37.2443 11.8701 35.8524 8.73743 33.3031C5.60477 30.7537 3.44638 27.2027 2.62575 23.2481C2.62202 23.2312 2.62215 23.2136 2.62613 23.1967C2.63012 23.1799 2.63785 23.1641 2.64876 23.1506C2.65967 23.1372 2.67348 23.1263 2.68916 23.1189C2.70483 23.1115 2.72197 23.1078 2.73931 23.1079C2.7659 23.1081 2.79163 23.1174 2.81227 23.1341C2.8329 23.1509 2.84722 23.1742 2.85286 23.2002C3.66134 27.1039 5.79081 30.6097 8.88242 33.1266C11.974 35.6435 15.8388 37.0178 19.8254 37.0178C23.8119 37.0178 27.6767 35.6435 30.7683 33.1266C33.8599 30.6097 35.9894 27.1039 36.7978 23.2002C36.8028 23.1742 36.8167 23.1507 36.8371 23.1339C36.8575 23.117 36.8832 23.1079 36.9096 23.1079Z" fill="#48A2AE" stroke="#48A2AE" stroke-width="0.3"/>
<path d="M1.17783 22.0059H5.76072C5.78549 22.0056 5.81005 22.0103 5.83297 22.0197C5.8559 22.0291 5.87673 22.0429 5.89424 22.0604C5.91175 22.0779 5.92559 22.0988 5.93496 22.1217C5.94433 22.1446 5.94903 22.1692 5.94879 22.1939V22.2809C5.94903 22.3056 5.94433 22.3302 5.93496 22.3531C5.92559 22.3761 5.91175 22.3969 5.89424 22.4144C5.87673 22.4319 5.8559 22.4457 5.83297 22.4551C5.81005 22.4645 5.78549 22.4692 5.76072 22.4689H1.75624C1.72951 22.4701 1.70333 22.4769 1.67945 22.4889C1.65556 22.501 1.63452 22.518 1.61773 22.5388C1.60093 22.5596 1.58878 22.5838 1.58207 22.6097C1.57536 22.6356 1.57425 22.6626 1.57881 22.689C2.30701 27.0036 4.53999 30.9209 7.88163 33.7458C11.2233 36.5707 15.4575 38.1207 19.8332 38.1207C24.2089 38.1207 28.4431 36.5707 31.7848 33.7458C35.1264 30.9209 37.3594 27.0036 38.0876 22.689C38.0921 22.6626 38.091 22.6356 38.0843 22.6097C38.0776 22.5838 38.0655 22.5596 38.0487 22.5388C38.0319 22.518 38.0108 22.501 37.987 22.4889C37.9631 22.4769 37.9369 22.4701 37.9102 22.4689H33.8489C33.799 22.4689 33.7512 22.4491 33.7159 22.4139C33.6806 22.3786 33.6608 22.3308 33.6608 22.2809V22.1939C33.6608 22.1441 33.6806 22.0962 33.7159 22.061C33.7512 22.0257 33.799 22.0059 33.8489 22.0059H38.4371C38.4639 22.0059 38.4904 22.0116 38.5148 22.0227C38.5391 22.0338 38.5609 22.0499 38.5785 22.0701C38.5962 22.0903 38.6093 22.1139 38.617 22.1396C38.6248 22.1652 38.6269 22.1922 38.6234 22.2188C37.9726 26.7592 35.7 30.9104 32.2256 33.9051C28.7513 36.8997 24.3103 38.5353 19.7235 38.5093C15.1368 38.4833 10.7145 36.7976 7.27435 33.7639C3.83415 30.7301 1.60865 26.5534 1.00928 22.0059H1.17783Z" fill="#48A2AE" stroke="#48A2AE" stroke-width="0.3"/>
<path fill-rule="evenodd" clip-rule="evenodd" d="M71.453 13.6908C72.1627 13.8717 72.8605 14.0622 73.5466 14.2621C74.1964 14.444 74.8184 14.7138 75.3953 15.064C75.9327 15.3915 76.3851 15.8414 76.7154 16.377C77.0501 16.9211 77.2175 17.6308 77.2175 18.5061C77.2409 19.3124 77.044 20.1099 76.648 20.8126C76.2637 21.4503 75.7319 21.9864 75.0973 22.3757C74.3878 22.8072 73.6065 23.1077 72.7907 23.2629C71.8509 23.4504 70.8944 23.5419 69.936 23.5361C69.5368 23.5361 69.1074 23.5219 68.6443 23.4953C68.1812 23.4687 67.7146 23.4261 67.2444 23.3729C66.7743 23.3196 66.3094 23.254 65.857 23.183C65.4045 23.112 64.9876 23.0287 64.615 22.9364V19.8634C64.9853 19.9664 65.3624 20.0434 65.7434 20.094C66.187 20.1579 66.6601 20.2123 67.1628 20.2573C67.6614 20.3034 68.1635 20.3389 68.6727 20.3655C69.1819 20.3921 69.661 20.4063 70.1134 20.4063C71.5103 20.4063 72.5252 20.2797 73.158 20.0266C73.7908 19.7735 74.1084 19.3293 74.1108 18.6942C74.1073 18.5168 74.0706 18.3417 74.0026 18.1779C73.8797 17.9445 73.6933 17.7508 73.465 17.619C73.0872 17.3784 72.6807 17.1864 72.2549 17.0477C71.5455 16.8074 70.8242 16.6037 70.0939 16.4373C69.6592 16.3291 69.1322 16.1925 68.5166 16.0292C67.8891 15.8627 67.2908 15.6012 66.7423 15.2539C66.1659 14.8889 65.6741 14.4049 65.2999 13.8345C64.9024 13.236 64.7031 12.4571 64.7019 11.4978C64.6808 10.7254 64.8619 9.96089 65.2271 9.27998C65.5696 8.66479 66.0568 8.1423 66.6465 7.75767C67.3084 7.33461 68.041 7.03411 68.8093 6.87055C69.7017 6.6731 70.6136 6.57727 71.5275 6.58489C71.8717 6.58489 72.2614 6.5985 72.6967 6.6257C73.1314 6.65232 73.5714 6.68957 74.0168 6.73393C74.4621 6.77829 74.9039 6.83861 75.3208 6.91136C75.7204 6.97811 76.1156 7.06876 76.5043 7.18282V10.2647C76.1774 10.177 75.8456 10.1089 75.5107 10.0607C75.1026 9.99678 74.6644 9.93823 74.1924 9.88323C73.7205 9.82823 73.2361 9.78919 72.7375 9.7608C72.2389 9.73242 71.7723 9.72 71.3376 9.72C69.9786 9.72 69.0542 9.86548 68.5645 10.1565C68.3387 10.2769 68.151 10.4579 68.0224 10.6792C67.8939 10.9005 67.8297 11.1533 67.837 11.4091C67.828 11.6795 67.8937 11.9472 68.0269 12.1827C68.1813 12.4169 68.3917 12.609 68.639 12.7415C68.9931 12.9341 69.3666 13.0887 69.7532 13.2029C70.2169 13.3472 70.7835 13.5098 71.453 13.6908ZM59.2599 20.3246V23.371H47.289V6.72853H59.2599V9.77492H50.566V13.5275H57.6364V16.5721H50.5518V20.3246H59.2599ZM91.1848 14.2621C90.4988 14.0622 89.8009 13.8717 89.0912 13.6908C88.4217 13.5098 87.8551 13.3471 87.3914 13.2028C87.0048 13.0887 86.6314 12.9341 86.2772 12.7415C86.0303 12.6084 85.8201 12.4164 85.6651 12.1826C85.5319 11.9471 85.4662 11.6795 85.4753 11.4091C85.4679 11.1533 85.5322 10.9005 85.6607 10.6792C85.7892 10.4579 85.9769 10.2769 86.2027 10.1564C86.6924 9.86547 87.6168 9.71998 88.9759 9.71998C89.4106 9.71998 89.8772 9.7324 90.3757 9.76078C90.8743 9.78917 91.3605 9.82998 91.8306 9.88321C92.3026 9.93762 92.742 9.99676 93.1489 10.0606C93.4809 10.1092 93.8097 10.1774 94.1336 10.2647V7.1828C93.7449 7.06874 93.3497 6.9781 92.9502 6.91134C92.5244 6.83859 92.0914 6.77827 91.6461 6.73391C91.2008 6.68956 90.7625 6.6523 90.3261 6.62568C89.8908 6.59848 89.501 6.58487 89.1568 6.58487C88.2429 6.57744 87.3311 6.67326 86.4387 6.87053C85.6709 7.03407 84.9389 7.33458 84.2776 7.75765C83.6876 8.14195 83.2004 8.66452 82.8582 9.27996C82.4961 9.96171 82.3181 10.7262 82.3419 11.4978C82.3419 12.4571 82.5412 13.236 82.9399 13.8345C83.3129 14.4053 83.8042 14.8893 84.3805 15.2539C84.929 15.6012 85.5273 15.8627 86.1548 16.0292C86.7705 16.1924 87.2974 16.3291 87.7321 16.4373C88.4624 16.6037 89.1837 16.8074 89.8931 17.0476C90.3194 17.1865 90.7266 17.3784 91.105 17.6189C91.3296 17.7521 91.5122 17.9458 91.6319 18.1778C91.6999 18.3417 91.7366 18.5168 91.7401 18.6941C91.7413 19.3293 91.4243 19.7735 90.7891 20.0266C90.154 20.2797 89.1385 20.4063 87.7428 20.4063C87.2903 20.4063 86.8113 20.3921 86.3021 20.3655C85.7929 20.3389 85.2961 20.3016 84.7922 20.2573C84.2883 20.2129 83.8181 20.1579 83.3728 20.094C82.9917 20.0434 82.6147 19.9663 82.2444 19.8634V22.9364C82.6258 23.0286 83.041 23.112 83.4952 23.183C83.9494 23.254 84.4107 23.3196 84.8827 23.3728C85.3546 23.4261 85.8195 23.4687 86.2825 23.4953C86.7456 23.5219 87.175 23.5361 87.5742 23.5361C88.5326 23.5419 89.4891 23.4504 90.429 23.2628C91.2447 23.1077 92.026 22.8072 92.7355 22.3757C93.3701 21.9864 93.9019 21.4503 94.2862 20.8126C94.6822 20.1098 94.8791 19.3124 94.8557 18.5061C94.8557 17.6308 94.6884 16.9211 94.3536 16.377C94.0239 15.8414 93.5722 15.3915 93.0353 15.064C92.4578 14.7138 91.8352 14.444 91.1848 14.2621ZM113.553 13.5283V22.419C112.542 22.8092 111.495 23.0963 110.426 23.276C109.431 23.4567 108.422 23.5522 107.41 23.5617C106.138 23.5868 104.872 23.3651 103.684 22.9087C102.669 22.5107 101.751 21.8989 100.993 21.115C100.264 20.3488 99.7069 19.4352 99.3604 18.4358C98.9947 17.3745 98.8141 16.2582 98.8264 15.1357C98.817 13.9902 99.0147 12.8523 99.4101 11.7771C99.7824 10.7604 100.37 9.83618 101.133 9.06779C101.952 8.27092 102.93 7.65497 104.002 7.25983C105.287 6.79346 106.647 6.56791 108.013 6.59448C108.358 6.59448 108.729 6.60809 109.128 6.63529C109.527 6.6619 109.939 6.69916 110.37 6.74352C110.801 6.78788 111.212 6.8482 111.612 6.92095C111.993 6.98728 112.37 7.07795 112.74 7.19241V10.5369C112.426 10.396 112.098 10.2866 111.762 10.2104C111.38 10.1193 110.977 10.0377 110.552 9.96556C110.127 9.89459 109.69 9.83959 109.247 9.80233C108.803 9.76507 108.381 9.7491 107.982 9.7491C107.014 9.72244 106.048 9.86043 105.127 10.1572C104.442 10.3807 103.821 10.7673 103.319 11.2838C102.872 11.7752 102.549 12.3657 102.375 13.0066C102.18 13.6993 102.084 14.4161 102.089 15.1357C102.083 15.8465 102.169 16.5552 102.347 17.2435C102.507 17.8647 102.815 18.438 103.244 18.9149C103.709 19.4125 104.287 19.7905 104.93 20.0167C105.774 20.3026 106.663 20.436 107.554 20.4106C107.97 20.4106 108.414 20.3928 108.886 20.3574C109.363 20.3207 109.837 20.2568 110.306 20.1657V16.5729H106.225V13.5283H113.553Z" fill="#48A2AE"/>
<line x1="124.952" y1="2.40088" x2="124.952" y2="37.4453" stroke="#15EDA3" stroke-linecap="round"/>
<path d="M139.722 17.1214H134.701V8.11554H139.722V9.04569H135.749V11.947H139.482V12.871H135.749V16.185H139.722V17.1214Z" fill="#48A2AE"/>
<path d="M148.851 11.1647H147.132V17.1214H146.11V11.1647H144.902V10.7027L146.11 10.3331V9.95736C146.11 8.29829 146.834 7.46875 148.284 7.46875C148.641 7.46875 149.06 7.54062 149.541 7.68435L149.276 8.50362C148.882 8.37631 148.545 8.31266 148.266 8.31266C147.88 8.31266 147.594 8.44202 147.409 8.70074C147.225 8.95535 147.132 9.36601 147.132 9.93272V10.3701H148.851V11.1647ZM144.613 11.1647H142.894V17.1214H141.872V11.1647H140.664V10.7027L141.872 10.3331V9.95736C141.872 8.29829 142.596 7.46875 144.046 7.46875C144.403 7.46875 144.822 7.54062 145.303 7.68435L145.038 8.50362C144.644 8.37631 144.307 8.31266 144.028 8.31266C143.642 8.31266 143.356 8.44202 143.171 8.70074C142.987 8.95535 142.894 9.36601 142.894 9.93272V10.3701H144.613V11.1647ZM151.148 17.1214H150.126V10.3701H151.148V17.1214ZM150.04 8.54058C150.04 8.3065 150.097 8.13608 150.212 8.0293C150.327 7.91842 150.471 7.86299 150.643 7.86299C150.808 7.86299 150.949 7.91842 151.068 8.0293C151.187 8.14018 151.247 8.31061 151.247 8.54058C151.247 8.77055 151.187 8.94303 151.068 9.05801C150.949 9.16889 150.808 9.22433 150.643 9.22433C150.471 9.22433 150.327 9.16889 150.212 9.05801C150.097 8.94303 150.04 8.77055 150.04 8.54058Z" fill="#48A2AE"/>
<path d="M156.033 17.2446C155.056 17.2446 154.298 16.9448 153.76 16.3452C153.226 15.7415 152.959 14.8894 152.959 13.7888C152.959 12.6595 153.23 11.7869 153.773 11.1709C154.319 10.5549 155.095 10.2469 156.101 10.2469C156.425 10.2469 156.75 10.2818 157.074 10.3516C157.399 10.4214 157.653 10.5035 157.838 10.598L157.524 11.4665C157.298 11.3762 157.052 11.3023 156.785 11.2448C156.518 11.1832 156.282 11.1524 156.076 11.1524C154.705 11.1524 154.019 12.0271 154.019 13.7765C154.019 14.6061 154.185 15.2426 154.518 15.6861C154.855 16.1296 155.352 16.3514 156.009 16.3514C156.571 16.3514 157.148 16.2302 157.74 15.9879V16.8934C157.288 17.1275 156.719 17.2446 156.033 17.2446Z" fill="#48A2AE"/>
<path d="M160.37 17.1214H159.347V10.3701H160.37V17.1214ZM159.261 8.54058C159.261 8.3065 159.319 8.13608 159.434 8.0293C159.549 7.91842 159.692 7.86299 159.865 7.86299C160.029 7.86299 160.171 7.91842 160.29 8.0293C160.409 8.14018 160.468 8.31061 160.468 8.54058C160.468 8.77055 160.409 8.94303 160.29 9.05801C160.171 9.16889 160.029 9.22433 159.865 9.22433C159.692 9.22433 159.549 9.16889 159.434 9.05801C159.319 8.94303 159.261 8.77055 159.261 8.54058Z" fill="#48A2AE"/>
<path d="M165.39 17.2446C164.392 17.2446 163.604 16.9407 163.025 16.3329C162.45 15.7251 162.162 14.8812 162.162 13.8012C162.162 12.7129 162.429 11.8485 162.963 11.2078C163.501 10.5672 164.222 10.2469 165.125 10.2469C165.971 10.2469 166.641 10.5261 167.133 11.0846C167.626 11.639 167.873 12.3721 167.873 13.2837V13.9305H163.222C163.242 14.7231 163.442 15.3247 163.819 15.7354C164.201 16.146 164.737 16.3514 165.427 16.3514C166.154 16.3514 166.873 16.1994 167.583 15.8955V16.8072C167.222 16.9633 166.879 17.0741 166.554 17.1398C166.234 17.2097 165.846 17.2446 165.39 17.2446ZM165.113 11.1031C164.571 11.1031 164.138 11.2797 163.813 11.6329C163.493 11.986 163.304 12.4747 163.247 13.0989H166.776C166.776 12.4542 166.632 11.9614 166.345 11.6205C166.057 11.2756 165.647 11.1031 165.113 11.1031Z" fill="#48A2AE"/>
<path d="M174.242 17.1214V12.754C174.242 12.2037 174.117 11.793 173.866 11.522C173.616 11.2509 173.224 11.1154 172.69 11.1154C171.983 11.1154 171.466 11.3064 171.137 11.6883C170.809 12.0702 170.645 12.7006 170.645 13.5794V17.1214H169.622V10.3701H170.454L170.62 11.2941H170.669C170.879 10.9614 171.172 10.7048 171.55 10.5241C171.928 10.3393 172.349 10.2469 172.813 10.2469C173.626 10.2469 174.238 10.444 174.649 10.8382C175.059 11.2284 175.265 11.8546 175.265 12.717V17.1214H174.242Z" fill="#48A2AE"/>
<path d="M179.552 16.4006C179.733 16.4006 179.907 16.3883 180.075 16.3637C180.244 16.3349 180.377 16.3062 180.476 16.2774V17.0598C180.365 17.1131 180.201 17.1563 179.983 17.1891C179.769 17.2261 179.576 17.2446 179.404 17.2446C178.098 17.2446 177.445 16.5567 177.445 15.181V11.1647H176.478V10.6719L177.445 10.2469L177.876 8.80545H178.468V10.3701H180.427V11.1647H178.468V15.1379C178.468 15.5444 178.564 15.8565 178.757 16.0742C178.95 16.2918 179.215 16.4006 179.552 16.4006Z" fill="#48A2AE"/>
<path d="M190.344 14.7251C190.344 15.5177 190.057 16.1358 189.482 16.5793C188.907 17.0228 188.126 17.2446 187.141 17.2446C186.073 17.2446 185.252 17.107 184.677 16.8318V15.8216C185.047 15.9777 185.449 16.1009 185.884 16.1912C186.32 16.2816 186.751 16.3267 187.178 16.3267C187.876 16.3267 188.402 16.1953 188.755 15.9325C189.108 15.6656 189.285 15.296 189.285 14.8237C189.285 14.5116 189.221 14.257 189.094 14.0599C188.97 13.8586 188.761 13.6739 188.465 13.5055C188.174 13.3371 187.728 13.1462 187.129 12.9326C186.291 12.6328 185.691 12.2776 185.33 11.8669C184.973 11.4563 184.794 10.9204 184.794 10.2592C184.794 9.56518 185.055 9.01284 185.576 8.60218C186.098 8.19151 186.788 7.98618 187.646 7.98618C188.541 7.98618 189.365 8.15045 190.116 8.47898L189.79 9.39065C189.046 9.07854 188.324 8.92249 187.621 8.92249C187.067 8.92249 186.634 9.04159 186.322 9.27977C186.01 9.51795 185.853 9.84854 185.853 10.2715C185.853 10.5836 185.911 10.8403 186.026 11.0415C186.141 11.2386 186.334 11.4214 186.605 11.5897C186.88 11.754 187.299 11.9368 187.862 12.138C188.806 12.4747 189.455 12.8361 189.808 13.2221C190.165 13.6081 190.344 14.1092 190.344 14.7251Z" fill="#48A2AE"/>
<path d="M192.993 10.3701V14.7498C192.993 15.3001 193.118 15.7107 193.369 15.9818C193.619 16.2528 194.011 16.3883 194.545 16.3883C195.251 16.3883 195.767 16.1953 196.091 15.8093C196.42 15.4233 196.584 14.7929 196.584 13.9182V10.3701H197.607V17.1214H196.763L196.615 16.2158H196.559C196.35 16.5485 196.058 16.8031 195.685 16.9797C195.315 17.1563 194.892 17.2446 194.416 17.2446C193.594 17.2446 192.978 17.0495 192.568 16.6594C192.161 16.2692 191.958 15.645 191.958 14.7867V10.3701H192.993Z" fill="#48A2AE"/>
<path d="M204.136 15.2795C204.136 15.9079 203.902 16.3924 203.434 16.7333C202.966 17.0741 202.309 17.2446 201.463 17.2446C200.567 17.2446 199.869 17.1029 199.368 16.8195V15.8709C199.693 16.0352 200.04 16.1645 200.409 16.259C200.783 16.3534 201.142 16.4006 201.487 16.4006C202.021 16.4006 202.432 16.3165 202.719 16.1481C203.007 15.9756 203.151 15.7148 203.151 15.3658C203.151 15.103 203.036 14.8791 202.806 14.6943C202.58 14.5054 202.136 14.2837 201.475 14.0291C200.847 13.795 200.399 13.5917 200.132 13.4192C199.869 13.2427 199.672 13.0435 199.541 12.8217C199.414 12.6 199.35 12.3351 199.35 12.0271C199.35 11.4768 199.574 11.0436 200.021 10.7274C200.469 10.407 201.083 10.2469 201.863 10.2469C202.59 10.2469 203.3 10.3947 203.994 10.6904L203.631 11.522C202.953 11.2427 202.339 11.1031 201.789 11.1031C201.305 11.1031 200.939 11.1791 200.693 11.331C200.446 11.483 200.323 11.6924 200.323 11.9593C200.323 12.14 200.368 12.294 200.459 12.4213C200.553 12.5486 200.703 12.6698 200.908 12.7848C201.114 12.8998 201.508 13.0661 202.091 13.2837C202.892 13.5753 203.432 13.8689 203.711 14.1646C203.994 14.4603 204.136 14.8319 204.136 15.2795Z" fill="#48A2AE"/>
<path d="M207.986 16.4006C208.167 16.4006 208.341 16.3883 208.51 16.3637C208.678 16.3349 208.812 16.3062 208.91 16.2774V17.0598C208.799 17.1131 208.635 17.1563 208.417 17.1891C208.204 17.2261 208.011 17.2446 207.838 17.2446C206.532 17.2446 205.879 16.5567 205.879 15.181V11.1647H204.912V10.6719L205.879 10.2469L206.311 8.80545H206.902V10.3701H208.861V11.1647H206.902V15.1379C206.902 15.5444 206.998 15.8565 207.191 16.0742C207.384 16.2918 207.649 16.4006 207.986 16.4006Z" fill="#48A2AE"/>
<path d="M214.417 17.1214L214.214 16.1604H214.164C213.828 16.5834 213.491 16.8709 213.154 17.0228C212.822 17.1706 212.405 17.2446 211.904 17.2446C211.234 17.2446 210.709 17.0721 210.327 16.7271C209.949 16.3822 209.76 15.8914 209.76 15.2549C209.76 13.8915 210.85 13.177 213.031 13.1112L214.177 13.0743V12.6554C214.177 12.1257 214.062 11.7355 213.832 11.485C213.606 11.2304 213.243 11.1031 212.742 11.1031C212.179 11.1031 211.542 11.2756 210.832 11.6205L210.518 10.8382C210.85 10.6575 211.214 10.5159 211.608 10.4132C212.006 10.3105 212.405 10.2592 212.803 10.2592C213.608 10.2592 214.203 10.4378 214.59 10.7951C214.98 11.1524 215.175 11.7253 215.175 12.5137V17.1214H214.417ZM212.107 16.4006C212.744 16.4006 213.243 16.2261 213.604 15.8771C213.969 15.528 214.152 15.0393 214.152 14.411V13.8012L213.13 13.8443C212.317 13.873 211.729 14.0003 211.368 14.2262C211.011 14.4479 210.832 14.795 210.832 15.2672C210.832 15.6368 210.943 15.9181 211.165 16.1111C211.39 16.3041 211.705 16.4006 212.107 16.4006Z" fill="#48A2AE"/>
<path d="M218.31 17.1214H217.288V10.3701H218.31V17.1214ZM217.201 8.54058C217.201 8.3065 217.259 8.13608 217.374 8.0293C217.489 7.91842 217.633 7.86299 217.805 7.86299C217.969 7.86299 218.111 7.91842 218.23 8.0293C218.349 8.14018 218.409 8.31061 218.409 8.54058C218.409 8.77055 218.349 8.94303 218.23 9.05801C218.111 9.16889 217.969 9.22433 217.805 9.22433C217.633 9.22433 217.489 9.16889 217.374 9.05801C217.259 8.94303 217.201 8.77055 217.201 8.54058Z" fill="#48A2AE"/>
<path d="M225.098 17.1214V12.754C225.098 12.2037 224.973 11.793 224.723 11.522C224.472 11.2509 224.08 11.1154 223.546 11.1154C222.84 11.1154 222.322 11.3064 221.994 11.6883C221.665 12.0702 221.501 12.7006 221.501 13.5794V17.1214H220.478V10.3701H221.31L221.476 11.2941H221.526C221.735 10.9614 222.029 10.7048 222.406 10.5241C222.784 10.3393 223.205 10.2469 223.669 10.2469C224.482 10.2469 225.094 10.444 225.505 10.8382C225.916 11.2284 226.121 11.8546 226.121 12.717V17.1214H225.098Z" fill="#48A2AE"/>
<path d="M232.379 17.1214L232.176 16.1604H232.127C231.79 16.5834 231.453 16.8709 231.117 17.0228C230.784 17.1706 230.367 17.2446 229.866 17.2446C229.197 17.2446 228.671 17.0721 228.289 16.7271C227.911 16.3822 227.722 15.8914 227.722 15.2549C227.722 13.8915 228.813 13.177 230.993 13.1112L232.139 13.0743V12.6554C232.139 12.1257 232.024 11.7355 231.794 11.485C231.568 11.2304 231.205 11.1031 230.704 11.1031C230.141 11.1031 229.505 11.2756 228.794 11.6205L228.48 10.8382C228.813 10.6575 229.176 10.5159 229.57 10.4132C229.969 10.3105 230.367 10.2592 230.765 10.2592C231.57 10.2592 232.166 10.4378 232.552 10.7951C232.942 11.1524 233.137 11.7253 233.137 12.5137V17.1214H232.379ZM230.069 16.4006C230.706 16.4006 231.205 16.2261 231.566 15.8771C231.932 15.528 232.115 15.0393 232.115 14.411V13.8012L231.092 13.8443C230.279 13.873 229.692 14.0003 229.33 14.2262C228.973 14.4479 228.794 14.795 228.794 15.2672C228.794 15.6368 228.905 15.9181 229.127 16.1111C229.353 16.3041 229.667 16.4006 230.069 16.4006Z" fill="#48A2AE"/>
<path d="M238.391 10.2592C239.279 10.2592 239.966 10.5631 240.455 11.1709C240.948 11.7745 241.194 12.6308 241.194 13.7396C241.194 14.8483 240.946 15.7107 240.449 16.3267C239.956 16.9386 239.27 17.2446 238.391 17.2446C237.952 17.2446 237.55 17.1645 237.184 17.0043C236.823 16.8401 236.519 16.5896 236.272 16.2528H236.199L235.983 17.1214H235.25V7.53651H236.272V9.86496C236.272 10.3865 236.256 10.8547 236.223 11.2694H236.272C236.749 10.5959 237.455 10.2592 238.391 10.2592ZM238.244 11.1154C237.546 11.1154 237.042 11.3167 236.734 11.7191C236.426 12.1174 236.272 12.7909 236.272 13.7396C236.272 14.6882 236.431 15.3678 236.747 15.7785C237.063 16.185 237.57 16.3883 238.268 16.3883C238.897 16.3883 239.365 16.1604 239.673 15.7046C239.981 15.2446 240.135 14.5855 240.135 13.7272C240.135 12.8484 239.981 12.1934 239.673 11.7622C239.365 11.331 238.888 11.1154 238.244 11.1154Z" fill="#48A2AE"/>
<path d="M244.009 17.1214H242.987V7.53651H244.009V17.1214Z" fill="#48A2AE"/>
<path d="M249.03 17.2446C248.032 17.2446 247.243 16.9407 246.664 16.3329C246.089 15.7251 245.802 14.8812 245.802 13.8012C245.802 12.7129 246.069 11.8485 246.603 11.2078C247.141 10.5672 247.861 10.2469 248.765 10.2469C249.611 10.2469 250.28 10.5261 250.773 11.0846C251.266 11.639 251.512 12.3721 251.512 13.2837V13.9305H246.861C246.882 14.7231 247.081 15.3247 247.459 15.7354C247.841 16.146 248.377 16.3514 249.067 16.3514C249.794 16.3514 250.512 16.1994 251.223 15.8955V16.8072C250.861 16.9633 250.518 17.0741 250.194 17.1398C249.874 17.2097 249.486 17.2446 249.03 17.2446ZM248.752 11.1031C248.21 11.1031 247.777 11.2797 247.453 11.6329C247.132 11.986 246.944 12.4747 246.886 13.0989H250.416C250.416 12.4542 250.272 11.9614 249.984 11.6205C249.697 11.2756 249.286 11.1031 248.752 11.1031Z" fill="#48A2AE"/>
<text x="134.7" y="33.5" font-size="12.5" fill="#48A2AE" font-family="system-ui, -apple-system, BlinkMacSystemFont, sans-serif" font-weight="300" letter-spacing="-0.3">Solutions Group</text>
</svg>
